<svg version="1.1" xmlns="http://www.w3.org/2000/svg">
    <defs>
        <symbol id="icon-basket" viewBox="0 0 32 32">
            <path d="M23.8454 8.22411C23.7281 8.10888 23.5642 8.05424 23.4012 8.07606H17.0343V5.26277C17.0343 2.48241 14.7804 0.228516 12.0001 0.228516C9.21971 0.228516 6.96582 2.48241 6.96582 5.26277V8.07606H0.598861C0.421164 8.07606 0.243523 8.07606 0.154646 8.22411C0.0352739 8.33884 -0.0201042 8.50492 0.00659291 8.66833L2.22761 20.8098C2.53789 22.5035 4.00034 23.7429 5.72199 23.7712H18.278C20.0046 23.7287 21.464 22.4795 21.7724 20.7802L23.9934 8.66833C24.0201 8.50492 23.9647 8.33884 23.8454 8.22411ZM8.1503 5.26277C8.1503 3.13663 9.87388 1.41305 12 1.41305C14.1261 1.41305 15.8497 3.13663 15.8497 5.26277V8.07606H8.1503V5.26277ZM20.5879 20.6321C20.3884 21.7545 19.4179 22.5757 18.278 22.5866H5.72199C4.58212 22.5757 3.61161 21.7545 3.41215 20.6321L1.30959 9.2606H22.6904L20.5879 20.6321Z" fill="black"/>
            <path d="M16.4419 15.0351C16.769 15.0351 17.0341 14.7699 17.0341 14.4428V12.666C17.0341 12.3389 16.769 12.0737 16.4419 12.0737C16.1148 12.0737 15.8496 12.3389 15.8496 12.666V14.4428C15.8496 14.7699 16.1148 15.0351 16.4419 15.0351Z" fill="black"/>
            <path d="M7.55809 15.0351C7.8852 15.0351 8.15036 14.7699 8.15036 14.4428V12.666C8.15036 12.3389 7.8852 12.0737 7.55809 12.0737C7.23098 12.0737 6.96582 12.3389 6.96582 12.666V14.4428C6.96582 14.7699 7.23098 15.0351 7.55809 15.0351Z" fill="black"/>
        </symbol>
        <symbol id="icon-phone" viewBox="0 0 32 32">
            <path d="M8.25241 7.81643C6.75058 9.31823 6.75058 11.7618 8.25238 13.2636L9.05007 12.4659C7.98816 11.404 7.98814 9.67613 9.0501 8.61417C10.112 7.55224 11.8399 7.55224 12.9018 8.61414L13.6995 7.81646C12.1978 6.31463 9.75418 6.31466 8.25241 7.81643Z" fill="#6E9C9F"/>
            <path d="M9.84127 9.39119C9.2091 10.0234 9.20907 11.052 9.84124 11.6842L10.639 10.8865C10.5458 10.7934 10.4945 10.6695 10.4945 10.5377C10.4945 10.406 10.5458 10.2821 10.639 10.1889C10.7322 10.0958 10.856 10.0444 10.9878 10.0444C11.1195 10.0444 11.2434 10.0958 11.3366 10.1889L12.1343 9.39122C11.5021 8.75902 10.4734 8.75902 9.84127 9.39119Z" fill="#6E9C9F"/>
            <path d="M19.7483 7.43513L17.8551 5.54848L13.9234 9.47367L15.4476 11.0478C15.1921 11.5013 14.6379 12.3699 13.6933 13.3145C12.7487 14.2592 11.8737 14.8197 11.4159 15.0792L9.87261 13.5556L6.00226 17.4029L7.8851 19.2983C8.60485 20.0181 9.69998 20.2046 10.6102 19.7625C11.9992 19.0879 14.0955 17.8431 16.1943 15.7443C18.2931 13.6455 19.5379 11.5492 20.2125 10.1602C20.3723 9.83109 20.45 9.47787 20.45 9.12692C20.45 8.5072 20.2078 7.89464 19.7483 7.43513ZM19.1977 9.66732C18.5609 10.9785 17.3845 12.9587 15.3966 14.9466C13.4087 16.9345 11.4285 18.1109 10.1174 18.7477C9.63935 18.9799 9.06287 18.8806 8.6842 18.5019L7.59746 17.4079L9.87543 15.1436L11.1901 16.4415L11.5419 16.2849C11.5991 16.2595 12.9595 15.6438 14.4912 14.1121C16.0239 12.5795 16.6267 11.2305 16.6515 11.1739L16.8041 10.8268L15.5068 9.48705L17.8559 7.14178L18.9512 8.23327C19.3307 8.6133 19.4298 9.18952 19.1977 9.66732Z" fill="#6E9C9F"/>
        </symbol>
        <symbol id="icon-down" viewBox="0 0 32 32">
            <path d="M8 0V28M8 28L1 20.8108M8 28L15 20.8108" stroke="#6E9C9F"/>
        </symbol>
    </defs>
</svg>